<?xml version="1.0" encoding="utf-8"?>
<!-- Generator: Adobe Illustrator 24.1.2, SVG Export Plug-In . SVG Version: 6.00 Build 0)  -->
<svg version="1.1" id="Layer_1" xmlns="http://www.w3.org/2000/svg" xmlns:xlink="http://www.w3.org/1999/xlink" x="0px" y="0px"
	 viewBox="0 0 63.3 13.5" style="enable-background:new 0 0 63.3 13.5;" xml:space="preserve">
<style type="text/css">
	.st0{fill:#FFFFFF;}
</style>
<g>
	<path class="st0" d="M8.5,10.1H6.2L3,5.3v4.7H0.7V1.6H3l3.1,4.8V1.6h2.4V10.1z"/>
	<path class="st0" d="M9.8,4.9c0.3-0.5,0.6-0.9,1-1.2c0.4-0.3,0.9-0.4,1.5-0.4c0.5,0,0.9,0.1,1.2,0.3s0.6,0.4,0.8,0.7V3.3h2.4v6.7
		h-2.4V9.1c-0.2,0.3-0.4,0.6-0.8,0.7c-0.3,0.2-0.7,0.3-1.2,0.3c-0.5,0-1-0.1-1.5-0.4c-0.4-0.3-0.8-0.7-1-1.2S9.5,7.4,9.5,6.7
		C9.5,6,9.6,5.4,9.8,4.9z M14,5.7c-0.2-0.2-0.5-0.4-0.9-0.4c-0.4,0-0.6,0.1-0.9,0.4c-0.2,0.2-0.3,0.6-0.3,1c0,0.4,0.1,0.8,0.3,1
		c0.2,0.3,0.5,0.4,0.9,0.4c0.3,0,0.6-0.1,0.9-0.4c0.2-0.2,0.4-0.6,0.4-1C14.3,6.3,14.2,5.9,14,5.7z"/>
	<path class="st0" d="M23.8,11.5l-0.9-1.4c-0.3,0-0.5,0.1-0.8,0.1c-0.8,0-1.5-0.2-2.2-0.6s-1.2-0.9-1.6-1.5s-0.6-1.4-0.6-2.2
		s0.2-1.6,0.6-2.2s0.9-1.2,1.6-1.5c0.7-0.4,1.4-0.6,2.2-0.6c0.8,0,1.5,0.2,2.2,0.6c0.7,0.4,1.2,0.9,1.6,1.5c0.4,0.7,0.6,1.4,0.6,2.2
		c0,0.7-0.1,1.3-0.4,1.9c-0.3,0.6-0.7,1.1-1.2,1.5l1.8,2.3H23.8z M20.6,7.4C21,7.8,21.5,8,22.1,8c0.6,0,1.1-0.2,1.4-0.6
		S24,6.5,24,5.8c0-0.7-0.2-1.2-0.5-1.6c-0.3-0.4-0.8-0.6-1.4-0.6c-0.6,0-1.1,0.2-1.4,0.6c-0.3,0.4-0.5,0.9-0.5,1.6
		C20.1,6.5,20.3,7,20.6,7.4z"/>
	<path class="st0" d="M34.4,3.3v6.7H32v-1c-0.2,0.3-0.5,0.6-0.8,0.7c-0.4,0.2-0.8,0.3-1.2,0.3c-0.8,0-1.4-0.3-1.9-0.8
		c-0.5-0.5-0.7-1.2-0.7-2.1V3.3h2.3V7c0,0.4,0.1,0.7,0.3,0.9c0.2,0.2,0.5,0.3,0.8,0.3c0.3,0,0.6-0.1,0.8-0.3C31.9,7.6,32,7.3,32,7
		V3.3H34.4z"/>
	<path class="st0" d="M35.7,4.9c0.3-0.5,0.6-0.9,1-1.2c0.4-0.3,0.9-0.4,1.5-0.4c0.5,0,0.9,0.1,1.2,0.3C39.7,3.7,40,4,40.2,4.3V3.3
		h2.4v6.7h-2.4V9.1c-0.2,0.3-0.4,0.6-0.8,0.7s-0.7,0.3-1.2,0.3c-0.5,0-1-0.1-1.5-0.4c-0.4-0.3-0.8-0.7-1-1.2s-0.4-1.1-0.4-1.8
		C35.3,6,35.4,5.4,35.7,4.9z M39.8,5.7c-0.2-0.2-0.5-0.4-0.9-0.4c-0.4,0-0.6,0.1-0.9,0.4c-0.2,0.2-0.3,0.6-0.3,1
		c0,0.4,0.1,0.8,0.3,1c0.2,0.3,0.5,0.4,0.9,0.4c0.3,0,0.6-0.1,0.9-0.4c0.2-0.2,0.4-0.6,0.4-1C40.2,6.3,40,5.9,39.8,5.7z"/>
	<path class="st0" d="M46.2,1.2v8.9h-2.4V1.2H46.2z"/>
	<path class="st0" d="M47.7,2.4c-0.3-0.2-0.4-0.5-0.4-0.9c0-0.4,0.1-0.6,0.4-0.9c0.3-0.2,0.6-0.3,1-0.3c0.4,0,0.7,0.1,1,0.3
		c0.3,0.2,0.4,0.5,0.4,0.9c0,0.3-0.1,0.6-0.4,0.9c-0.3,0.2-0.6,0.3-1,0.3C48.3,2.7,48,2.6,47.7,2.4z M49.9,3.3v6.7h-2.4V3.3H49.9z"
		/>
	<path class="st0" d="M54.9,5.3h-1.1v4.8h-2.4V5.3h-0.7v-2h0.7V3.3c0-0.9,0.3-1.5,0.8-2c0.5-0.5,1.2-0.7,2.2-0.7c0.2,0,0.3,0,0.4,0
		v2c-0.1,0-0.2,0-0.3,0c-0.3,0-0.4,0.1-0.6,0.2c-0.1,0.1-0.2,0.3-0.2,0.6h1.1V5.3z"/>
	<path class="st0" d="M63,3.3l-4.3,9.9h-2.6l1.6-3.5L55,3.3h2.6L59,7.2l1.4-3.8H63z"/>
</g>
</svg>
