<?xml version="1.0" encoding="utf-8"?>
<!-- Generator: Adobe Illustrator 24.1.2, SVG Export Plug-In . SVG Version: 6.00 Build 0)  -->
<svg version="1.1" id="Layer_1" xmlns="http://www.w3.org/2000/svg" xmlns:xlink="http://www.w3.org/1999/xlink" x="0px" y="0px"
	 viewBox="0 0 45.3 12.4" style="enable-background:new 0 0 45.3 12.4;" xml:space="preserve">
<style type="text/css">
	.st0{fill:#2E21DF;}
</style>
<g>
	<path class="st0" d="M1.9,2C1.7,1.8,1.6,1.6,1.6,1.3c0-0.3,0.1-0.5,0.3-0.7c0.2-0.2,0.5-0.3,0.8-0.3c0.3,0,0.6,0.1,0.8,0.3
		C3.8,0.8,3.9,1,3.9,1.3c0,0.3-0.1,0.5-0.3,0.7C3.4,2.2,3.1,2.3,2.8,2.3C2.4,2.3,2.1,2.2,1.9,2z M3.7,3v6.2H1.8V3H3.7z"/>
	<path class="st0" d="M5.1,4.5c0.3-0.5,0.6-0.9,1-1.1C6.6,3.1,7,2.9,7.6,2.9C8,2.9,8.3,3,8.6,3.1c0.3,0.1,0.6,0.3,0.8,0.6V3h1.9v9.2
		H9.4V8.4C9.2,8.7,8.9,8.9,8.6,9.1C8.3,9.2,7.9,9.3,7.5,9.3c-0.5,0-1-0.1-1.4-0.4c-0.4-0.3-0.8-0.6-1-1.1c-0.3-0.5-0.4-1-0.4-1.7
		C4.7,5.5,4.8,4.9,5.1,4.5z M9.2,5.3C9.1,5,8.9,4.9,8.7,4.7C8.5,4.6,8.3,4.6,8,4.6c-0.2,0-0.4,0.1-0.6,0.2C7.2,4.9,7,5,6.9,5.3
		C6.7,5.5,6.7,5.8,6.7,6.1S6.7,6.7,6.9,7C7,7.2,7.2,7.4,7.4,7.5C7.6,7.6,7.8,7.6,8,7.6s0.4-0.1,0.7-0.2S9.1,7.2,9.2,7
		c0.1-0.2,0.2-0.5,0.2-0.9S9.3,5.5,9.2,5.3z"/>
	<path class="st0" d="M18.8,3v6.2h-1.9V8.4c-0.2,0.3-0.5,0.5-0.8,0.7c-0.3,0.2-0.7,0.3-1.1,0.3c-0.5,0-0.9-0.1-1.3-0.3
		c-0.4-0.2-0.6-0.5-0.8-0.9c-0.2-0.4-0.3-0.9-0.3-1.4V3h1.9v3.4c0,0.4,0.1,0.7,0.3,1c0.2,0.2,0.5,0.3,0.9,0.3c0.4,0,0.7-0.1,0.9-0.3
		c0.2-0.2,0.3-0.6,0.3-1V3H18.8z"/>
	<path class="st0" d="M20.2,4.4c0.2-0.5,0.6-0.9,1-1.1c0.4-0.3,0.9-0.4,1.4-0.4c0.4,0,0.8,0.1,1.2,0.3c0.3,0.2,0.6,0.4,0.8,0.7V3
		h1.9v6.2h-1.9V8.3c-0.2,0.3-0.4,0.5-0.8,0.7c-0.3,0.2-0.7,0.3-1.2,0.3c-0.5,0-1-0.1-1.4-0.4s-0.7-0.6-1-1.1
		c-0.2-0.5-0.4-1.1-0.4-1.7S20,4.9,20.2,4.4z M24.1,5c-0.3-0.3-0.6-0.4-1-0.4s-0.7,0.1-1,0.4s-0.4,0.6-0.4,1.1s0.1,0.9,0.4,1.1
		s0.6,0.4,1,0.4s0.7-0.1,1-0.4c0.3-0.3,0.4-0.7,0.4-1.1C24.5,5.6,24.4,5.2,24.1,5z"/>
	<path class="st0" d="M29.7,0.9v8.3h-1.9V0.9H29.7z"/>
	<path class="st0" d="M31.3,2c-0.2-0.2-0.3-0.4-0.3-0.7c0-0.3,0.1-0.5,0.3-0.7c0.2-0.2,0.5-0.3,0.8-0.3c0.3,0,0.6,0.1,0.8,0.3
		c0.2,0.2,0.3,0.4,0.3,0.7c0,0.3-0.1,0.5-0.3,0.7c-0.2,0.2-0.5,0.3-0.8,0.3C31.7,2.3,31.5,2.2,31.3,2z M33,3v6.2h-1.9V3H33z"/>
	<path class="st0" d="M37.5,4.6h-1v4.7h-1.9V4.6h-0.7V3h0.7V2.8c0-0.8,0.2-1.4,0.7-1.8c0.4-0.4,1.1-0.6,1.9-0.6c0.1,0,0.2,0,0.3,0
		v1.6c-0.4,0-0.6,0-0.8,0.2c-0.1,0.1-0.2,0.4-0.2,0.7V3h1V4.6z"/>
	<path class="st0" d="M44.8,3l-3.9,9.2h-2.1L40.3,9l-2.5-6h2.1l1.4,3.9L42.7,3H44.8z"/>
</g>
</svg>
