<?xml version="1.0" encoding="utf-8"?>
<!-- Generator: Adobe Illustrator 24.1.2, SVG Export Plug-In . SVG Version: 6.00 Build 0)  -->
<svg version="1.1" id="Layer_1" xmlns="http://www.w3.org/2000/svg" xmlns:xlink="http://www.w3.org/1999/xlink" x="0px" y="0px"
	 viewBox="0 0 45.3 12.38" style="enable-background:new 0 0 45.3 12.38;" xml:space="preserve">
<style type="text/css">
	.st0{fill:#D1D3D4;}
	.st1{fill:#2B3990;}
</style>
<g>
	<path class="st0" d="M4.04,1.69c0,0.33-0.11,0.59-0.32,0.77S3.26,2.75,2.97,2.75S2.43,2.66,2.22,2.47S1.9,2.02,1.9,1.69
		c0-0.33,0.11-0.59,0.32-0.77c0.21-0.19,0.46-0.28,0.75-0.28s0.54,0.09,0.75,0.28C3.93,1.11,4.04,1.37,4.04,1.69z M3.87,9.83H2.08
		V3.52h1.79V9.83z"/>
	<path class="st0" d="M5.25,6.67c0-0.49,0.07-0.93,0.22-1.34c0.15-0.4,0.36-0.75,0.64-1.04C6.39,4,6.74,3.77,7.15,3.61
		s0.87-0.24,1.39-0.24c0.22,0,0.44,0.01,0.68,0.03s0.47,0.05,0.7,0.08c0.23,0.03,0.45,0.07,0.65,0.11s0.39,0.09,0.55,0.14v8.32H9.33
		V9.67c-0.2,0.09-0.41,0.16-0.62,0.2c-0.22,0.05-0.45,0.07-0.7,0.07c-0.9,0-1.58-0.29-2.05-0.88C5.49,8.48,5.25,7.68,5.25,6.67z
		 M7.07,6.72c0,1.14,0.42,1.72,1.27,1.72c0.18,0,0.37-0.02,0.55-0.07c0.18-0.05,0.33-0.11,0.44-0.18V4.96
		c-0.09-0.02-0.2-0.03-0.34-0.04C8.86,4.9,8.71,4.9,8.55,4.9c-0.49,0-0.86,0.17-1.1,0.5S7.07,6.17,7.07,6.72z"/>
	<path class="st0" d="M18.19,9.61c-0.3,0.09-0.7,0.17-1.18,0.25c-0.48,0.08-0.98,0.11-1.51,0.11c-0.54,0-0.98-0.07-1.34-0.22
		c-0.36-0.14-0.64-0.35-0.85-0.61c-0.21-0.26-0.36-0.57-0.44-0.93c-0.09-0.36-0.13-0.76-0.13-1.19V3.52h1.79v3.3
		c0,0.58,0.08,0.99,0.23,1.25c0.15,0.26,0.44,0.38,0.85,0.38c0.13,0,0.26-0.01,0.41-0.02c0.14-0.01,0.27-0.03,0.38-0.04V3.52h1.79
		V9.61z"/>
	<path class="st0" d="M22.13,3.35c0.53,0,0.97,0.06,1.32,0.18c0.35,0.12,0.63,0.29,0.85,0.52c0.21,0.22,0.36,0.5,0.45,0.82
		c0.09,0.32,0.13,0.68,0.13,1.07v3.72c-0.26,0.06-0.61,0.12-1.07,0.2c-0.46,0.08-1.01,0.11-1.66,0.11c-0.41,0-0.78-0.04-1.11-0.11
		c-0.33-0.07-0.62-0.19-0.86-0.35c-0.24-0.16-0.42-0.38-0.55-0.64c-0.13-0.26-0.19-0.59-0.19-0.97c0-0.37,0.07-0.68,0.22-0.94
		c0.15-0.26,0.35-0.46,0.59-0.61c0.25-0.15,0.53-0.26,0.85-0.33s0.65-0.1,1-0.1c0.23,0,0.44,0.01,0.62,0.03
		c0.18,0.02,0.33,0.05,0.44,0.08V5.85c0-0.3-0.09-0.55-0.28-0.73s-0.5-0.28-0.96-0.28c-0.3,0-0.6,0.02-0.9,0.07
		s-0.55,0.11-0.77,0.19l-0.23-1.44c0.1-0.03,0.23-0.07,0.39-0.1c0.16-0.04,0.33-0.07,0.51-0.1c0.18-0.03,0.38-0.05,0.58-0.07
		C21.72,3.36,21.93,3.35,22.13,3.35z M22.28,8.58c0.18,0,0.34,0,0.5-0.01c0.16-0.01,0.29-0.02,0.38-0.04V7.18
		c-0.07-0.02-0.18-0.03-0.32-0.05c-0.14-0.02-0.28-0.02-0.4-0.02c-0.17,0-0.33,0.01-0.47,0.03s-0.28,0.06-0.39,0.11
		c-0.11,0.06-0.2,0.13-0.26,0.23s-0.1,0.22-0.1,0.36c0,0.28,0.09,0.47,0.28,0.58C21.69,8.53,21.95,8.58,22.28,8.58z"/>
	<path class="st0" d="M29.02,9.95c-0.52-0.01-0.94-0.06-1.27-0.17c-0.32-0.1-0.58-0.25-0.77-0.44c-0.19-0.19-0.32-0.42-0.38-0.68
		s-0.1-0.57-0.1-0.91V0.81l1.79-0.29v6.88c0,0.16,0.01,0.3,0.04,0.43c0.02,0.13,0.07,0.24,0.14,0.32c0.07,0.09,0.17,0.16,0.29,0.22
		c0.13,0.06,0.3,0.09,0.52,0.11L29.02,9.95z"/>
	<path class="st0" d="M32.25,1.69c0,0.33-0.11,0.59-0.32,0.77c-0.21,0.19-0.46,0.28-0.75,0.28s-0.54-0.09-0.75-0.28
		s-0.32-0.45-0.32-0.77c0-0.33,0.11-0.59,0.32-0.77c0.21-0.19,0.46-0.28,0.75-0.28s0.54,0.09,0.75,0.28
		C32.14,1.11,32.25,1.37,32.25,1.69z M32.08,9.83h-1.79V3.52h1.79V9.83z"/>
	<path class="st0" d="M36.5,0.52c0.34,0,0.64,0.03,0.92,0.1c0.28,0.07,0.5,0.13,0.65,0.2l-0.35,1.43c-0.16-0.07-0.33-0.13-0.52-0.16
		s-0.36-0.05-0.52-0.05c-0.22,0-0.4,0.03-0.55,0.09s-0.26,0.14-0.35,0.25s-0.14,0.23-0.18,0.37c-0.04,0.14-0.05,0.3-0.05,0.47v0.31
		h2.21v1.49h-2.21v4.82h-1.79V3.18c0-0.82,0.23-1.46,0.69-1.94S35.59,0.52,36.5,0.52z"/>
	<path class="st0" d="M44.77,3.52c-0.36,1.22-0.74,2.36-1.13,3.42s-0.82,2.1-1.29,3.1c-0.17,0.36-0.34,0.67-0.5,0.92
		c-0.17,0.25-0.35,0.46-0.55,0.62c-0.2,0.16-0.43,0.28-0.68,0.36c-0.25,0.08-0.55,0.11-0.88,0.11c-0.28,0-0.54-0.03-0.78-0.08
		s-0.43-0.11-0.58-0.17l0.31-1.43c0.18,0.06,0.35,0.11,0.49,0.13c0.14,0.02,0.3,0.04,0.46,0.04c0.32,0,0.57-0.09,0.74-0.26
		c0.17-0.17,0.32-0.41,0.44-0.71c-0.41-0.8-0.82-1.7-1.22-2.69s-0.79-2.11-1.15-3.35h1.9c0.08,0.31,0.17,0.65,0.28,1.01
		c0.11,0.36,0.22,0.73,0.34,1.1c0.12,0.37,0.24,0.73,0.37,1.09c0.12,0.35,0.24,0.67,0.36,0.96c0.1-0.29,0.21-0.61,0.33-0.96
		s0.22-0.71,0.33-1.09s0.21-0.74,0.31-1.1c0.1-0.36,0.19-0.7,0.27-1.01H44.77z"/>
</g>
<g>
	<path class="st1" d="M2.8,1.69c0,0.33-0.11,0.59-0.32,0.77S2.02,2.75,1.73,2.75S1.19,2.66,0.98,2.47S0.66,2.02,0.66,1.69
		c0-0.33,0.11-0.59,0.32-0.77c0.21-0.19,0.46-0.28,0.75-0.28s0.54,0.09,0.75,0.28C2.69,1.11,2.8,1.37,2.8,1.69z M2.63,9.83H0.84
		V3.52h1.79V9.83z"/>
	<path class="st1" d="M4.01,6.67c0-0.49,0.07-0.93,0.22-1.34c0.15-0.4,0.36-0.75,0.64-1.04C5.15,4,5.5,3.77,5.9,3.61
		S6.78,3.37,7.3,3.37c0.22,0,0.44,0.01,0.68,0.03s0.47,0.05,0.7,0.08C8.9,3.51,9.12,3.55,9.32,3.6s0.39,0.09,0.55,0.14v8.32H8.09
		V9.67c-0.2,0.09-0.41,0.16-0.62,0.2c-0.22,0.05-0.45,0.07-0.7,0.07c-0.9,0-1.58-0.29-2.05-0.88C4.24,8.48,4.01,7.68,4.01,6.67z
		 M5.83,6.72c0,1.14,0.42,1.72,1.27,1.72c0.18,0,0.37-0.02,0.55-0.07c0.18-0.05,0.33-0.11,0.44-0.18V4.96
		C8,4.94,7.89,4.93,7.75,4.92C7.62,4.9,7.47,4.9,7.31,4.9c-0.49,0-0.86,0.17-1.1,0.5S5.83,6.17,5.83,6.72z"/>
	<path class="st1" d="M16.94,9.61c-0.3,0.09-0.7,0.17-1.18,0.25c-0.48,0.08-0.98,0.11-1.51,0.11c-0.54,0-0.98-0.07-1.34-0.22
		c-0.36-0.14-0.64-0.35-0.85-0.61c-0.21-0.26-0.36-0.57-0.44-0.93c-0.09-0.36-0.13-0.76-0.13-1.19V3.52h1.79v3.3
		c0,0.58,0.08,0.99,0.23,1.25c0.15,0.26,0.44,0.38,0.85,0.38c0.13,0,0.26-0.01,0.41-0.02c0.14-0.01,0.27-0.03,0.38-0.04V3.52h1.79
		V9.61z"/>
	<path class="st1" d="M20.89,3.35c0.53,0,0.97,0.06,1.32,0.18c0.35,0.12,0.63,0.29,0.85,0.52c0.21,0.22,0.36,0.5,0.45,0.82
		c0.09,0.32,0.13,0.68,0.13,1.07v3.72c-0.26,0.06-0.61,0.12-1.07,0.2c-0.46,0.08-1.01,0.11-1.66,0.11c-0.41,0-0.78-0.04-1.11-0.11
		c-0.33-0.07-0.62-0.19-0.86-0.35c-0.24-0.16-0.42-0.38-0.55-0.64c-0.13-0.26-0.19-0.59-0.19-0.97c0-0.37,0.07-0.68,0.22-0.94
		c0.15-0.26,0.35-0.46,0.59-0.61c0.25-0.15,0.53-0.26,0.85-0.33s0.65-0.1,1-0.1c0.23,0,0.44,0.01,0.62,0.03
		c0.18,0.02,0.33,0.05,0.44,0.08V5.85c0-0.3-0.09-0.55-0.28-0.73s-0.5-0.28-0.96-0.28c-0.3,0-0.6,0.02-0.9,0.07
		s-0.55,0.11-0.77,0.19l-0.23-1.44c0.1-0.03,0.23-0.07,0.39-0.1c0.16-0.04,0.33-0.07,0.51-0.1c0.18-0.03,0.38-0.05,0.58-0.07
		C20.48,3.36,20.68,3.35,20.89,3.35z M21.04,8.58c0.18,0,0.34,0,0.5-0.01c0.16-0.01,0.29-0.02,0.38-0.04V7.18
		c-0.07-0.02-0.18-0.03-0.32-0.05c-0.14-0.02-0.28-0.02-0.4-0.02c-0.17,0-0.33,0.01-0.47,0.03s-0.28,0.06-0.39,0.11
		c-0.11,0.06-0.2,0.13-0.26,0.23s-0.1,0.22-0.1,0.36c0,0.28,0.09,0.47,0.28,0.58C20.45,8.53,20.71,8.58,21.04,8.58z"/>
	<path class="st1" d="M27.78,9.95c-0.52-0.01-0.94-0.06-1.27-0.17c-0.32-0.1-0.58-0.25-0.77-0.44c-0.19-0.19-0.32-0.42-0.38-0.68
		s-0.1-0.57-0.1-0.91V0.81l1.79-0.29v6.88c0,0.16,0.01,0.3,0.04,0.43s0.07,0.24,0.14,0.32c0.07,0.09,0.17,0.16,0.29,0.22
		c0.13,0.06,0.3,0.09,0.52,0.11L27.78,9.95z"/>
	<path class="st1" d="M31.01,1.69c0,0.33-0.11,0.59-0.32,0.77s-0.46,0.28-0.75,0.28s-0.54-0.09-0.75-0.28s-0.32-0.45-0.32-0.77
		c0-0.33,0.11-0.59,0.32-0.77c0.21-0.19,0.46-0.28,0.75-0.28s0.54,0.09,0.75,0.28C30.9,1.11,31.01,1.37,31.01,1.69z M30.84,9.83
		h-1.79V3.52h1.79V9.83z"/>
	<path class="st1" d="M35.26,0.52c0.34,0,0.64,0.03,0.92,0.1c0.28,0.07,0.5,0.13,0.65,0.2l-0.35,1.43
		c-0.16-0.07-0.33-0.13-0.52-0.16s-0.36-0.05-0.52-0.05c-0.22,0-0.4,0.03-0.55,0.09s-0.26,0.14-0.35,0.25s-0.14,0.23-0.18,0.37
		c-0.04,0.14-0.05,0.3-0.05,0.47v0.31h2.21v1.49h-2.21v4.82h-1.79V3.18c0-0.82,0.23-1.46,0.69-1.94S34.35,0.52,35.26,0.52z"/>
	<path class="st1" d="M43.52,3.52c-0.36,1.22-0.74,2.36-1.13,3.42s-0.82,2.1-1.29,3.1c-0.17,0.36-0.34,0.67-0.5,0.92
		c-0.17,0.25-0.35,0.46-0.55,0.62c-0.2,0.16-0.43,0.28-0.68,0.36c-0.25,0.08-0.55,0.11-0.88,0.11c-0.28,0-0.54-0.03-0.78-0.08
		c-0.24-0.05-0.43-0.11-0.58-0.17l0.31-1.43c0.18,0.06,0.35,0.11,0.49,0.13c0.14,0.02,0.3,0.04,0.46,0.04
		c0.32,0,0.57-0.09,0.74-0.26c0.17-0.17,0.32-0.41,0.44-0.71c-0.41-0.8-0.82-1.7-1.22-2.69s-0.79-2.11-1.15-3.35h1.9
		c0.08,0.31,0.17,0.65,0.28,1.01c0.11,0.36,0.22,0.73,0.34,1.1c0.12,0.37,0.24,0.73,0.37,1.09c0.12,0.35,0.24,0.67,0.36,0.96
		c0.1-0.29,0.21-0.61,0.33-0.96s0.22-0.71,0.33-1.09s0.21-0.74,0.31-1.1c0.1-0.36,0.19-0.7,0.27-1.01H43.52z"/>
</g>
</svg>
